<?xml version="1.0" encoding="UTF-8"?>
<!-- Generator: visioncortex VTracer 0.6.3 -->
<svg version="1.1" xmlns="http://www.w3.org/2000/svg" width="1280" height="1280">
<path d="M0 0 C0.67 -0 1.34 -0 2.03 -0 C4.3 -0.01 6.56 -0 8.83 -0 C10.47 -0 12.11 -0 13.75 -0 C18.29 -0.01 22.83 -0.01 27.37 -0 C32.3 -0 37.22 -0 42.15 -0.01 C50.8 -0.01 59.44 -0.01 68.09 -0.01 C80.95 -0 93.8 -0.01 106.66 -0.01 C129.62 -0.01 152.58 -0.01 175.53 -0.01 C195.62 -0.01 215.71 -0.01 235.8 -0.01 C237.15 -0.01 238.49 -0.01 239.84 -0.01 C245.24 -0.01 250.64 -0.01 256.04 -0.01 C271.13 -0.01 286.23 -0.01 301.33 -0.01 C302.36 -0.01 302.36 -0.01 303.41 -0.01 C325.33 -0.01 347.25 -0.01 369.16 -0.01 C370.23 -0.01 370.23 -0.01 371.32 -0.01 C382.87 -0.01 394.42 -0.01 405.97 -0 C451.78 0 497.59 -0 543.4 -0.01 C554.94 -0.01 566.49 -0.01 578.03 -0.01 C578.74 -0.01 579.45 -0.01 580.19 -0.01 C602.08 -0.01 623.97 -0.01 645.87 -0.01 C646.56 -0.01 647.24 -0.01 647.95 -0.01 C663.03 -0.01 678.11 -0.01 693.19 -0.01 C698.59 -0.01 703.98 -0.01 709.38 -0.01 C710.72 -0.01 712.06 -0.01 713.4 -0.01 C734.16 -0.01 754.91 -0.01 775.66 -0.01 C798.48 -0.01 821.31 -0.01 844.13 -0.01 C856.92 -0 869.71 -0 882.5 -0.01 C891.02 -0.01 899.55 -0.01 908.08 -0 C912.95 -0 917.81 -0 922.68 -0.01 C927.1 -0.01 931.52 -0.01 935.94 -0 C937.54 -0 939.14 -0 940.74 -0 C942.89 -0.01 945.04 -0 947.2 0 C948.39 0 949.59 0 950.82 0 C953.6 0.13 953.6 0.13 955.6 1.13 C956.86 1.23 958.11 1.33 959.41 1.44 C965.73 2.07 971.58 4.17 977.6 6.13 C979.33 6.62 979.33 6.62 981.1 7.13 C982.83 7.62 982.83 7.62 984.6 8.13 C985.61 8.41 986.62 8.7 987.66 8.99 C993.87 10.81 999.08 12.77 1004.6 16.13 C1005.9 16.63 1007.21 17.11 1008.54 17.56 C1012.28 18.89 1015.39 20.75 1018.7 22.92 C1021.23 24.53 1023.89 25.84 1026.6 27.13 C1026.6 27.79 1026.6 28.45 1026.6 29.13 C1027.19 29.24 1027.78 29.36 1028.38 29.49 C1032.04 30.54 1034.79 32.85 1037.85 35.06 C1038.82 35.75 1038.82 35.75 1039.82 36.44 C1041.45 37.62 1043.03 38.87 1044.6 40.13 C1044.6 40.79 1044.6 41.45 1044.6 42.13 C1045.16 42.37 1045.72 42.62 1046.31 42.87 C1055.59 47.95 1065.55 58.45 1071.6 67.13 C1071.6 67.79 1071.6 68.45 1071.6 69.13 C1072.26 69.13 1072.92 69.13 1073.6 69.13 C1075.7 71.38 1077.42 73.95 1079.22 76.44 C1080 77.47 1080 77.47 1080.79 78.53 C1081.27 79.2 1081.76 79.86 1082.26 80.55 C1082.71 81.16 1083.16 81.78 1083.62 82.41 C1084.6 84.13 1084.6 84.13 1084.6 87.13 C1085.26 87.13 1085.92 87.13 1086.6 87.13 C1086.99 87.92 1087.37 88.72 1087.77 89.54 C1090.95 96.06 1090.95 96.06 1094.72 102.25 C1097.36 106.29 1098.89 110.63 1100.6 115.13 C1101.3 116.9 1102.01 118.67 1102.72 120.44 C1103.35 122 1103.97 123.56 1104.6 125.13 C1104.95 125.97 1105.3 126.82 1105.66 127.69 C1106.69 130.36 1107.37 133.05 1108.03 135.83 C1108.67 138.41 1109.42 140.95 1110.16 143.5 C1111.43 148.08 1112.07 152.49 1112.39 157.23 C1112.4 159.13 1112.4 159.13 1113.6 160.13 C1113.7 161.89 1113.72 163.67 1113.72 165.44 C1113.73 167.18 1113.73 167.18 1113.73 168.96 C1113.73 170.25 1113.73 171.55 1113.72 172.88 C1113.73 174.26 1113.73 175.64 1113.73 177.02 C1113.73 180.85 1113.73 184.68 1113.73 188.51 C1113.72 192.66 1113.73 196.81 1113.73 200.96 C1113.73 208.25 1113.73 215.54 1113.73 222.83 C1113.73 233.67 1113.73 244.5 1113.73 255.34 C1113.74 274.69 1113.74 294.04 1113.73 313.39 C1113.73 330.33 1113.73 347.26 1113.73 364.2 C1113.73 365.32 1113.73 366.44 1113.73 367.59 C1113.73 372.15 1113.73 376.7 1113.73 381.25 C1113.74 423.98 1113.73 466.72 1113.73 509.45 C1113.72 547.46 1113.72 585.46 1113.73 623.46 C1113.73 666.12 1113.74 708.77 1113.73 751.42 C1113.73 755.97 1113.73 760.51 1113.73 765.05 C1113.73 766.17 1113.73 767.29 1113.73 768.44 C1113.73 785.37 1113.73 802.3 1113.73 819.23 C1113.74 838.47 1113.74 857.7 1113.73 876.94 C1113.73 887.72 1113.73 898.5 1113.73 909.28 C1113.73 916.47 1113.73 923.66 1113.73 930.84 C1113.73 934.95 1113.73 939.05 1113.73 943.15 C1113.73 946.88 1113.73 950.6 1113.73 954.33 C1113.72 956.32 1113.73 958.31 1113.73 960.29 C1113.73 961.46 1113.73 962.62 1113.72 963.81 C1113.72 965.33 1113.72 965.33 1113.72 966.87 C1113.6 969.13 1113.6 969.13 1112.6 970.13 C1112.44 971.56 1112.32 973 1112.22 974.44 C1110.07 997.52 1099.61 1020.47 1087.79 1040.06 C1087 1041.36 1087 1041.36 1086.2 1042.69 C1077.93 1056.29 1077.93 1056.29 1073.6 1061.13 C1072.94 1061.13 1072.28 1061.13 1071.6 1061.13 C1071.37 1061.67 1071.14 1062.22 1070.9 1062.78 C1062.75 1077.44 1043.12 1093.25 1028.6 1101.13 C1027.94 1101.13 1027.28 1101.13 1026.6 1101.13 C1026.6 1101.79 1026.6 1102.45 1026.6 1103.13 C1025.4 1103.71 1025.4 1103.71 1024.18 1104.3 C1017.66 1107.48 1017.66 1107.48 1011.47 1111.25 C1003.47 1116.47 993.55 1118.99 984.6 1122.13 C983.77 1122.43 982.94 1122.73 982.09 1123.04 C976.18 1125.14 970.99 1125.96 964.6 1127.13 C964.6 1177.62 964.6 1228.11 964.6 1280.13 C959.63 1279.13 956.75 1277.5 952.72 1274.69 C951.38 1273.77 950.04 1272.86 948.7 1271.94 C948.02 1271.47 947.34 1271 946.63 1270.52 C943.48 1268.36 940.29 1266.24 937.1 1264.13 C935.85 1263.29 934.6 1262.46 933.35 1261.63 C932.73 1261.21 932.11 1260.8 931.47 1260.38 C879.6 1225.79 827.72 1191.21 775.85 1156.63 C774.92 1156.01 774.92 1156.01 773.97 1155.37 C772.73 1154.54 771.48 1153.71 770.23 1152.88 C767.05 1150.76 763.86 1148.64 760.67 1146.52 C760.02 1146.09 759.37 1145.65 758.7 1145.21 C757.48 1144.4 756.27 1143.59 755.05 1142.79 C754.48 1142.41 753.91 1142.03 753.33 1141.64 C752.77 1141.28 752.21 1140.91 751.63 1140.54 C749.6 1139.13 749.6 1139.13 747.49 1137.38 C740.67 1131.96 735.5 1131.13 726.93 1131.26 C725.06 1131.24 725.06 1131.24 723.15 1131.23 C719.7 1131.21 716.24 1131.23 712.79 1131.25 C709.03 1131.27 705.27 1131.26 701.51 1131.24 C694.92 1131.22 688.33 1131.23 681.74 1131.25 C671.94 1131.29 662.14 1131.28 652.35 1131.27 C635.86 1131.25 619.37 1131.26 602.88 1131.29 C586.54 1131.32 570.2 1131.33 553.86 1131.33 C552.84 1131.33 551.83 1131.32 550.78 1131.32 C545.62 1131.32 540.45 1131.32 535.29 1131.32 C498.71 1131.3 462.13 1131.31 425.54 1131.33 C423.33 1131.34 421.12 1131.34 418.91 1131.34 C417.81 1131.34 416.72 1131.34 415.59 1131.34 C410.04 1131.35 404.5 1131.35 398.95 1131.36 C397.85 1131.36 396.76 1131.36 395.62 1131.36 C370.11 1131.38 344.6 1131.39 319.09 1131.39 C317.45 1131.39 317.45 1131.39 315.78 1131.4 C290.82 1131.4 265.87 1131.4 240.91 1131.4 C239.86 1131.4 238.81 1131.4 237.73 1131.4 C228.29 1131.4 218.84 1131.4 209.39 1131.39 C184.85 1131.39 160.31 1131.39 135.77 1131.42 C120.37 1131.44 104.97 1131.44 89.57 1131.44 C79.83 1131.44 70.09 1131.45 60.35 1131.47 C53.83 1131.48 47.32 1131.49 40.8 1131.48 C37.09 1131.48 33.39 1131.48 29.68 1131.49 C9.07 1131.57 -10.79 1131.01 -30.4 1124.13 C-31.56 1123.8 -32.71 1123.47 -33.9 1123.13 C-35.06 1122.8 -36.21 1122.47 -37.4 1122.13 C-38.92 1121.7 -38.92 1121.7 -40.46 1121.26 C-46.67 1119.44 -51.92 1117.52 -57.4 1114.13 C-59.03 1113.45 -60.67 1112.78 -62.3 1112.11 C-66.27 1110.25 -69.98 1107.91 -73.73 1105.65 C-76.37 1104.03 -76.37 1104.03 -79.4 1103.13 C-79.4 1102.47 -79.4 1101.81 -79.4 1101.13 C-79.99 1101.01 -80.58 1100.89 -81.19 1100.76 C-84.84 1099.71 -87.6 1097.4 -90.65 1095.19 C-91.3 1094.73 -91.95 1094.28 -92.62 1093.81 C-94.25 1092.63 -95.83 1091.39 -97.4 1090.13 C-97.4 1089.47 -97.4 1088.81 -97.4 1088.13 C-97.96 1087.88 -98.53 1087.63 -99.11 1087.38 C-108.4 1082.3 -118.36 1071.8 -124.4 1063.13 C-124.4 1062.47 -124.4 1061.81 -124.4 1061.13 C-125.06 1061.13 -125.72 1061.13 -126.4 1061.13 C-128.5 1058.87 -130.22 1056.3 -132.03 1053.81 C-132.54 1053.12 -133.06 1052.43 -133.59 1051.72 C-134.08 1051.05 -134.56 1050.39 -135.07 1049.7 C-135.51 1049.09 -135.96 1048.47 -136.42 1047.84 C-137.4 1046.13 -137.4 1046.13 -137.4 1043.13 C-138.06 1043.13 -138.72 1043.13 -139.4 1043.13 C-139.98 1041.93 -139.98 1041.93 -140.57 1040.71 C-143.75 1034.19 -143.75 1034.19 -147.53 1028 C-150.16 1023.96 -151.7 1019.62 -153.4 1015.13 C-154.11 1013.35 -154.81 1011.58 -155.53 1009.81 C-156.15 1008.25 -156.78 1006.69 -157.4 1005.13 C-157.93 1003.85 -157.93 1003.85 -158.46 1002.56 C-159.49 999.89 -160.17 997.2 -160.83 994.43 C-161.48 991.83 -162.22 989.26 -162.96 986.69 C-164.31 981.82 -164.92 977.15 -165.4 972.13 C-165.73 971.47 -166.06 970.81 -166.4 970.13 C-166.5 968.31 -166.53 966.5 -166.53 964.69 C-166.53 962.94 -166.53 962.94 -166.53 961.16 C-166.53 959.86 -166.53 958.57 -166.53 957.23 C-166.53 955.85 -166.53 954.47 -166.53 953.09 C-166.54 949.25 -166.53 945.42 -166.53 941.59 C-166.53 937.44 -166.53 933.28 -166.53 929.12 C-166.54 921.83 -166.54 914.53 -166.53 907.24 C-166.53 896.39 -166.53 885.55 -166.54 874.7 C-166.54 855.33 -166.54 835.96 -166.54 816.59 C-166.53 799.64 -166.53 782.7 -166.54 765.75 C-166.54 764.62 -166.54 763.5 -166.54 762.34 C-166.54 757.79 -166.54 753.23 -166.54 748.68 C-166.54 705.9 -166.54 663.12 -166.53 620.35 C-166.53 582.31 -166.53 544.27 -166.53 506.24 C-166.54 463.54 -166.54 420.84 -166.54 378.15 C-166.54 373.6 -166.54 369.05 -166.54 364.5 C-166.54 363.38 -166.54 362.26 -166.54 361.11 C-166.53 344.17 -166.54 327.23 -166.54 310.28 C-166.54 291.03 -166.54 271.77 -166.53 252.52 C-166.53 241.73 -166.53 230.94 -166.54 220.15 C-166.54 212.96 -166.54 205.76 -166.53 198.57 C-166.53 194.46 -166.53 190.35 -166.53 186.25 C-166.54 182.52 -166.53 178.79 -166.53 175.06 C-166.53 173.07 -166.53 171.08 -166.53 169.1 C-166.53 167.93 -166.53 166.77 -166.53 165.57 C-166.53 164.56 -166.53 163.55 -166.53 162.5 C-166.4 160.13 -166.4 160.13 -165.4 158.13 C-165.3 156.87 -165.2 155.61 -165.09 154.31 C-164.46 147.99 -162.36 142.14 -160.4 136.13 C-160.07 134.97 -159.74 133.82 -159.4 132.63 C-159.07 131.47 -158.74 130.32 -158.4 129.13 C-158.12 128.11 -157.83 127.1 -157.53 126.06 C-155.72 119.86 -153.8 114.61 -150.4 109.13 C-149.7 107.47 -149 105.82 -148.32 104.15 C-146.69 100.55 -144.72 97.13 -142.8 93.68 C-141.62 91.51 -140.49 89.34 -139.4 87.13 C-138.74 87.13 -138.08 87.13 -137.4 87.13 C-137.28 86.54 -137.16 85.95 -137.04 85.34 C-135.99 81.68 -133.68 78.93 -131.46 75.88 C-131.01 75.23 -130.55 74.58 -130.08 73.91 C-128.91 72.27 -127.66 70.69 -126.4 69.13 C-125.74 69.13 -125.08 69.13 -124.4 69.13 C-124.16 68.56 -123.91 68 -123.66 67.42 C-118.58 58.13 -108.07 48.17 -99.4 42.13 C-98.74 42.13 -98.08 42.13 -97.4 42.13 C-97.4 41.47 -97.4 40.81 -97.4 40.13 C-95.15 38.03 -92.58 36.3 -90.09 34.5 C-89.05 33.73 -89.05 33.73 -88 32.94 C-87.33 32.45 -86.66 31.96 -85.98 31.46 C-85.36 31.01 -84.75 30.57 -84.12 30.1 C-82.4 29.13 -82.4 29.13 -79.4 29.13 C-79.4 28.47 -79.4 27.81 -79.4 27.13 C-78.61 26.74 -77.81 26.35 -76.99 25.95 C-70.46 22.77 -70.46 22.77 -64.28 19 C-60.23 16.36 -55.9 14.83 -51.4 13.13 C-49.63 12.42 -47.86 11.71 -46.09 11 C-44.53 10.38 -42.96 9.75 -41.4 9.13 C-40.54 8.78 -39.68 8.43 -38.8 8.07 C-35.72 6.86 -32.59 5.97 -29.4 5.13 C-28.02 4.75 -28.02 4.75 -26.6 4.37 C-20.51 2.77 -14.67 1.73 -8.4 1.13 C-5.56 -0.29 -3.18 0 0 0 Z M-8.4 80.13 C-10.19 80.63 -11.98 81.11 -13.78 81.56 C-18.21 82.74 -22.25 84.19 -26.4 86.13 C-26.4 86.79 -26.4 87.45 -26.4 88.13 C-27.44 88.27 -27.44 88.27 -28.51 88.41 C-32 89.27 -34.62 90.75 -37.71 92.56 C-39.32 93.49 -39.32 93.49 -40.95 94.43 C-41.76 94.99 -42.57 95.55 -43.4 96.13 C-43.4 96.79 -43.4 97.45 -43.4 98.13 C-44.19 98.43 -44.97 98.74 -45.78 99.06 C-48.32 100.05 -48.32 100.05 -50.4 101.13 C-50.4 101.79 -50.4 102.45 -50.4 103.13 C-51.39 103.46 -52.38 103.79 -53.4 104.13 C-53.4 104.79 -53.4 105.45 -53.4 106.13 C-54.3 106.53 -54.3 106.53 -55.21 106.94 C-57.4 108.12 -58.81 109.22 -60.4 111.13 C-60.4 111.79 -60.4 112.45 -60.4 113.13 C-61.89 113.62 -61.89 113.62 -63.4 114.13 C-63.4 114.79 -63.4 115.45 -63.4 116.13 C-64.06 116.13 -64.72 116.13 -65.4 116.13 C-67.72 119.35 -67.72 119.35 -68.4 123.13 C-69.06 123.13 -69.72 123.13 -70.4 123.13 C-78.15 133.89 -83.19 145.48 -86.6 158.25 C-87.4 161.13 -87.4 161.13 -88.4 163.13 C-90.16 172.4 -90.69 181.51 -90.65 190.93 C-90.66 192.26 -90.66 193.6 -90.66 194.93 C-90.67 198.58 -90.67 202.22 -90.66 205.86 C-90.65 209.84 -90.66 213.81 -90.67 217.78 C-90.67 224.74 -90.67 231.69 -90.67 238.65 C-90.66 248.99 -90.66 259.33 -90.67 269.68 C-90.68 288.15 -90.68 306.63 -90.67 325.1 C-90.67 341.27 -90.67 357.43 -90.67 373.6 C-90.67 374.67 -90.67 375.75 -90.67 376.85 C-90.67 381.21 -90.67 385.56 -90.67 389.92 C-90.68 430.76 -90.67 471.61 -90.66 512.45 C-90.65 548.73 -90.65 585.01 -90.66 621.3 C-90.67 662.07 -90.68 702.84 -90.67 743.61 C-90.67 747.95 -90.67 752.3 -90.67 756.65 C-90.67 757.72 -90.67 758.79 -90.67 759.89 C-90.67 776.05 -90.67 792.2 -90.67 808.36 C-90.68 826.73 -90.68 845.11 -90.67 863.48 C-90.66 873.76 -90.66 884.04 -90.67 894.32 C-90.67 901.19 -90.67 908.05 -90.66 914.92 C-90.66 918.84 -90.66 922.75 -90.66 926.66 C-90.67 930.23 -90.67 933.79 -90.66 937.36 C-90.65 939.23 -90.66 941.1 -90.67 942.97 C-90.57 966.12 -83.62 988.04 -70.4 1007.13 C-69.74 1007.13 -69.08 1007.13 -68.4 1007.13 C-68.09 1007.91 -67.78 1008.69 -67.46 1009.5 C-66.47 1012.05 -66.47 1012.05 -65.4 1014.13 C-64.74 1014.13 -64.08 1014.13 -63.4 1014.13 C-63.07 1015.12 -62.74 1016.11 -62.4 1017.13 C-61.74 1017.13 -61.08 1017.13 -60.4 1017.13 C-60.13 1017.72 -59.87 1018.32 -59.59 1018.94 C-58.4 1021.12 -57.31 1022.54 -55.4 1024.13 C-54.74 1024.13 -54.08 1024.13 -53.4 1024.13 C-52.91 1025.61 -52.91 1025.61 -52.4 1027.13 C-51.74 1027.13 -51.08 1027.13 -50.4 1027.13 C-50.4 1027.79 -50.4 1028.45 -50.4 1029.13 C-47.18 1031.44 -47.18 1031.44 -43.4 1032.13 C-43.4 1032.79 -43.4 1033.45 -43.4 1034.13 C-36.24 1039.31 -28.69 1043.11 -20.4 1046.13 C-19.23 1046.66 -18.05 1047.2 -16.84 1047.75 C-13.31 1049.16 -9.94 1049.98 -6.22 1050.7 C-4.4 1051.13 -4.4 1051.13 -3.4 1052.13 C-1.61 1052.33 0.18 1052.49 1.97 1052.63 C5.12 1052.86 7.59 1053.12 10.6 1054.13 C12.33 1054.22 14.07 1054.25 15.81 1054.26 C16.89 1054.26 17.98 1054.26 19.1 1054.27 C20.3 1054.27 21.5 1054.27 22.74 1054.26 C24.02 1054.27 25.3 1054.27 26.61 1054.27 C30.18 1054.28 33.74 1054.28 37.31 1054.28 C41.18 1054.28 45.05 1054.29 48.92 1054.3 C55.71 1054.31 62.51 1054.32 69.3 1054.32 C79.4 1054.33 89.5 1054.34 99.59 1054.36 C116.58 1054.38 133.57 1054.4 150.55 1054.42 C167.38 1054.43 184.2 1054.45 201.03 1054.47 C202.07 1054.47 203.12 1054.48 204.2 1054.48 C209.5 1054.48 214.81 1054.49 220.12 1054.5 C257.73 1054.54 295.35 1054.59 332.97 1054.63 C369.52 1054.67 406.07 1054.71 442.62 1054.75 C443.75 1054.75 444.87 1054.76 446.03 1054.76 C457.34 1054.77 468.65 1054.78 479.96 1054.8 C503 1054.83 526.03 1054.85 549.07 1054.88 C550.13 1054.88 551.19 1054.88 552.28 1054.89 C623.06 1054.97 693.83 1055.05 764.6 1055.13 C764.6 1055.79 764.6 1056.45 764.6 1057.13 C765.63 1057.7 766.66 1058.28 767.72 1058.88 C770.2 1060.28 772.57 1061.76 774.91 1063.38 C777.34 1065.31 777.34 1065.31 779.6 1065.13 C779.6 1065.79 779.6 1066.45 779.6 1067.13 C780.63 1067.7 781.66 1068.28 782.72 1068.88 C785.2 1070.28 787.57 1071.76 789.91 1073.38 C792.34 1075.31 792.34 1075.31 794.6 1075.13 C794.6 1075.79 794.6 1076.45 794.6 1077.13 C795.63 1077.7 796.66 1078.28 797.72 1078.88 C800.2 1080.28 802.57 1081.76 804.91 1083.38 C807.34 1085.31 807.34 1085.31 809.6 1085.13 C809.6 1085.79 809.6 1086.45 809.6 1087.13 C810.63 1087.7 811.66 1088.28 812.72 1088.88 C815.2 1090.28 817.57 1091.76 819.91 1093.38 C822.34 1095.31 822.34 1095.31 824.6 1095.13 C824.6 1095.79 824.6 1096.45 824.6 1097.13 C825.63 1097.7 826.66 1098.28 827.72 1098.88 C830.2 1100.28 832.57 1101.76 834.91 1103.38 C837.34 1105.31 837.34 1105.31 839.6 1105.13 C839.6 1105.79 839.6 1106.45 839.6 1107.13 C840.63 1107.7 841.66 1108.28 842.72 1108.88 C845.2 1110.28 847.57 1111.76 849.91 1113.38 C852.34 1115.31 852.34 1115.31 854.6 1115.13 C854.6 1115.79 854.6 1116.45 854.6 1117.13 C855.63 1117.7 856.66 1118.28 857.72 1118.88 C860.2 1120.28 862.57 1121.76 864.91 1123.38 C867.34 1125.31 867.34 1125.31 869.6 1125.13 C869.6 1125.79 869.6 1126.45 869.6 1127.13 C870.63 1127.7 871.66 1128.28 872.72 1128.88 C875.2 1130.28 877.57 1131.76 879.91 1133.38 C882.34 1135.31 882.34 1135.31 884.6 1135.13 C884.6 1135.79 884.6 1136.45 884.6 1137.13 C885.59 1137.13 886.58 1137.13 887.6 1137.13 C887.93 1110.07 888.26 1083.01 888.6 1055.13 C912.41 1054.69 912.41 1054.69 919.92 1054.56 C921.88 1054.52 923.84 1054.48 925.81 1054.44 C926.83 1054.43 927.85 1054.41 928.9 1054.39 C929.87 1054.37 930.85 1054.35 931.85 1054.33 C932.7 1054.32 933.54 1054.3 934.42 1054.28 C936.78 1054.2 936.78 1054.2 939.6 1053.13 C941.28 1052.97 942.97 1052.85 944.66 1052.75 C960.77 1051.37 977.45 1043.23 990.6 1034.13 C990.6 1033.47 990.6 1032.81 990.6 1032.13 C991.32 1031.88 992.04 1031.63 992.79 1031.38 C995.87 1030 998.11 1028.4 1000.6 1026.13 C1000.6 1025.47 1000.6 1024.81 1000.6 1024.13 C1001.2 1023.86 1001.79 1023.59 1002.41 1023.31 C1004.6 1022.13 1006.01 1021.03 1007.6 1019.13 C1007.6 1018.47 1007.6 1017.81 1007.6 1017.13 C1008.59 1016.8 1009.58 1016.47 1010.6 1016.13 C1012.04 1014.57 1012.04 1014.57 1013.29 1012.69 C1013.72 1012.07 1014.16 1011.45 1014.61 1010.82 C1015.77 1009.16 1015.77 1009.16 1015.6 1007.13 C1016.26 1007.13 1016.92 1007.13 1017.6 1007.13 C1025.35 996.36 1030.39 984.77 1033.8 972 C1034.6 969.13 1034.6 969.13 1035.6 967.13 C1035.8 965.32 1035.96 963.5 1036.1 961.69 C1036.33 958.56 1036.6 956.11 1037.6 953.13 C1037.69 951.35 1037.72 949.56 1037.72 947.78 C1037.73 946.66 1037.73 945.54 1037.73 944.39 C1037.73 943.16 1037.73 941.92 1037.72 940.65 C1037.73 939.33 1037.73 938.02 1037.73 936.67 C1037.73 933 1037.73 929.33 1037.73 925.66 C1037.72 921.68 1037.73 917.7 1037.73 913.72 C1037.73 906.74 1037.73 899.75 1037.73 892.76 C1037.73 882.38 1037.73 871.99 1037.73 861.6 C1037.74 843.05 1037.74 824.51 1037.73 805.96 C1037.73 789.73 1037.73 773.5 1037.73 757.26 C1037.73 756.19 1037.73 755.11 1037.73 754.01 C1037.73 749.64 1037.73 745.28 1037.73 740.91 C1037.74 699.95 1037.73 658.98 1037.73 618.01 C1037.72 581.58 1037.72 545.16 1037.73 508.73 C1037.73 467.84 1037.74 426.95 1037.73 386.06 C1037.73 381.7 1037.73 377.34 1037.73 372.99 C1037.73 371.91 1037.73 370.84 1037.73 369.74 C1037.73 353.51 1037.73 337.29 1037.73 321.06 C1037.74 302.62 1037.74 284.18 1037.73 265.74 C1037.73 255.41 1037.73 245.08 1037.73 234.75 C1037.73 227.86 1037.73 220.97 1037.73 214.08 C1037.73 210.15 1037.73 206.21 1037.73 202.28 C1037.73 198.05 1037.73 193.83 1037.72 189.61 C1037.73 188.37 1037.73 187.13 1037.73 185.86 C1037.73 184.18 1037.73 184.18 1037.72 182.47 C1037.72 181.5 1037.72 180.54 1037.72 179.54 C1037.7 176.98 1037.7 176.98 1036.6 174.13 C1036.45 172.44 1036.33 170.75 1036.22 169.06 C1034.84 152.85 1026.74 136.32 1017.21 123.38 C1015.6 121.13 1015.6 121.13 1014.02 118.34 C1013.55 117.61 1013.08 116.88 1012.6 116.13 C1011.94 116.13 1011.28 116.13 1010.6 116.13 C1010.27 115.14 1009.94 114.15 1009.6 113.13 C1008.94 113.13 1008.28 113.13 1007.6 113.13 C1007.2 112.23 1007.2 112.23 1006.79 111.31 C1005.6 109.13 1004.5 107.71 1002.6 106.13 C1001.94 106.13 1001.28 106.13 1000.6 106.13 C1000.27 105.14 999.94 104.15 999.6 103.13 C998.94 103.13 998.28 103.13 997.6 103.13 C997.6 102.47 997.6 101.81 997.6 101.13 C994.38 98.81 994.38 98.81 990.6 98.13 C990.6 97.47 990.6 96.81 990.6 96.13 C969.62 81.01 945.94 75.79 920.45 75.87 C918.86 75.87 917.27 75.87 915.68 75.86 C911.33 75.86 906.97 75.86 902.62 75.87 C897.88 75.87 893.13 75.87 888.39 75.86 C880.08 75.85 871.78 75.85 863.47 75.86 C851.12 75.87 838.76 75.86 826.41 75.86 C804.35 75.85 782.28 75.85 760.22 75.85 C740.91 75.86 721.6 75.86 702.29 75.86 C701.01 75.86 699.73 75.86 698.41 75.86 C693.21 75.86 688.02 75.86 682.82 75.86 C668.28 75.85 653.75 75.85 639.22 75.85 C638.23 75.85 638.23 75.85 637.21 75.85 C616.13 75.85 595.05 75.85 573.97 75.86 C573.28 75.86 572.6 75.86 571.9 75.86 C560.8 75.86 549.69 75.86 538.59 75.87 C494.57 75.87 450.54 75.87 406.52 75.86 C395.42 75.86 384.32 75.86 373.23 75.86 C372.55 75.86 371.86 75.86 371.16 75.86 C350.1 75.85 329.04 75.85 307.98 75.85 C307.32 75.85 306.66 75.85 305.97 75.85 C290.81 75.85 275.64 75.85 260.47 75.86 C255.28 75.86 250.09 75.86 244.9 75.86 C242.99 75.86 242.99 75.86 241.03 75.86 C221.73 75.86 202.44 75.86 183.14 75.85 C161.2 75.85 139.26 75.85 117.32 75.86 C105.04 75.87 92.76 75.87 80.48 75.86 C72.28 75.85 64.08 75.86 55.88 75.87 C51.2 75.87 46.53 75.87 41.86 75.86 C37.6 75.86 33.34 75.86 29.09 75.87 C27.56 75.87 26.04 75.87 24.51 75.87 C7.68 75.76 7.68 75.76 -8.4 80.13 Z " fill="#000000" transform="translate(166.40164375305176,-0.12534916400909424)"/>
<path d="M0 0 C0.87 0 1.74 0 2.63 0.01 C4 0 4 0 5.4 0 C8.49 -0 11.58 0 14.67 0 C16.88 0 19.08 0 21.29 -0 C27.3 -0.01 33.31 -0 39.31 -0 C45.59 0 51.86 -0 58.13 -0 C69.34 -0 80.55 -0 91.76 0 C101.94 0.01 112.11 0.01 122.29 0 C134.09 -0 145.89 -0 157.7 -0 C163.95 0 170.2 0 176.45 -0 C182.33 -0.01 188.21 -0 194.08 0 C196.25 0 198.41 0 200.57 0 C203.52 -0 206.46 0 209.4 0.01 C210.26 0 211.13 0 212.03 0 C217.9 0.02 217.9 0.02 219.01 1.13 C219.12 3.9 219.16 6.64 219.15 9.41 C219.16 10.29 219.16 11.17 219.16 12.07 C219.17 15.04 219.17 18.01 219.17 20.97 C219.18 23.09 219.18 25.21 219.19 27.33 C219.2 33.11 219.21 38.89 219.21 44.66 C219.22 48.28 219.22 51.89 219.22 55.5 C219.24 66.82 219.25 78.13 219.25 89.45 C219.26 102.49 219.27 115.53 219.3 128.57 C219.32 138.66 219.33 148.74 219.34 158.83 C219.34 164.85 219.34 170.87 219.36 176.89 C219.38 182.57 219.38 188.24 219.37 193.92 C219.37 195.99 219.37 198.06 219.38 200.13 C219.46 216.72 217.47 232.14 213.51 248.26 C213.21 249.54 213.21 249.54 212.91 250.84 C211.8 255.43 210.49 259.8 208.77 264.19 C208 266.18 207.3 268.19 206.62 270.21 C203.68 278.9 200.31 287.01 196.01 295.13 C195.66 295.86 195.31 296.59 194.95 297.34 C191.88 303.68 188.34 309.53 184.45 315.38 C183.6 316.67 183.6 316.67 182.74 317.99 C181.66 319.63 180.57 321.28 179.47 322.92 C178.56 324.3 177.67 325.68 176.79 327.08 C175.91 328.46 174.97 329.8 174.01 331.13 C173.35 331.13 172.69 331.13 172.01 331.13 C171.74 331.71 171.48 332.28 171.2 332.87 C169.97 335.21 168.59 337.26 167.01 339.38 C166.24 340.44 166.24 340.44 165.45 341.52 C164.98 342.06 164.5 342.59 164.01 343.13 C163.35 343.13 162.69 343.13 162.01 343.13 C161.75 343.72 161.48 344.31 161.21 344.92 C159.97 347.21 158.66 348.74 156.83 350.59 C156.21 351.21 155.59 351.82 154.96 352.46 C154.32 353.1 153.67 353.73 153.01 354.38 C152.37 355.03 151.73 355.68 151.07 356.35 C150.45 356.97 149.84 357.58 149.2 358.21 C148.64 358.77 148.07 359.33 147.49 359.91 C146.01 361.13 146.01 361.13 144.01 361.13 C144.01 361.79 144.01 362.45 144.01 363.13 C143.35 363.13 142.69 363.13 142.01 363.13 C142.01 363.79 142.01 364.45 142.01 365.13 C139.76 367.09 137.5 368.94 135.14 370.76 C134.16 371.53 134.16 371.53 133.17 372.32 C128.27 376.13 128.27 376.13 126.01 376.13 C126.01 376.79 126.01 377.45 126.01 378.13 C125.02 378.69 124.03 379.24 123 379.81 C119.64 381.73 116.43 383.83 113.22 385.99 C104.2 392.03 94.96 396.82 85.01 401.13 C83.34 401.87 83.34 401.87 81.63 402.63 C76.29 404.93 70.95 406.87 65.36 408.46 C63.15 409.09 60.99 409.81 58.83 410.57 C45.81 414.96 32.44 418.01 18.76 419.26 C17.86 419.34 16.95 419.43 16.02 419.51 C8.7 420.15 1.35 420.64 -5.99 420.13 C-7.66 418.46 -7.11 416.43 -7.12 414.2 C-7.12 413.14 -7.12 413.14 -7.12 412.06 C-7.12 411.32 -7.12 410.58 -7.12 409.82 C-7.13 407.36 -7.12 404.9 -7.12 402.45 C-7.12 400.75 -7.12 399.05 -7.12 397.35 C-7.12 393.78 -7.12 390.21 -7.12 386.64 C-7.11 382.06 -7.12 377.48 -7.12 372.89 C-7.12 369.38 -7.12 365.87 -7.12 362.36 C-7.12 360.66 -7.12 358.97 -7.12 357.28 C-7.13 354.93 -7.12 352.57 -7.12 350.21 C-7.12 349.5 -7.12 348.8 -7.12 348.07 C-7.1 343.25 -7.1 343.25 -5.99 342.13 C-2.94 341.97 0.09 341.86 3.14 341.76 C22.63 340.94 40.57 335.76 58.01 327.13 C59.45 326.48 59.45 326.48 60.92 325.81 C70.03 321.54 80.56 315.83 87.6 308.48 C89.01 307.13 89.01 307.13 91.01 307.13 C91.01 306.47 91.01 305.81 91.01 305.13 C92.41 303.79 92.41 303.79 94.39 302.2 C100.59 296.93 106.49 290.91 111.01 284.13 C111.67 284.13 112.33 284.13 113.01 284.13 C113.1 283.6 113.18 283.06 113.26 282.51 C114.29 279.26 116.07 276.87 118.01 274.07 C120.98 269.84 120.98 269.84 123.01 265.13 C123.67 265.13 124.33 265.13 125.01 265.13 C125.12 264.42 125.23 263.71 125.34 262.97 C126.08 259.84 127.28 257.51 128.83 254.7 C131.73 249.06 133.55 243.48 135.15 237.36 C135.99 234.23 136.98 231.2 138.01 228.13 C137.27 228.13 136.53 228.14 135.77 228.14 C117.76 228.16 99.75 228.18 81.74 228.19 C73.03 228.19 64.32 228.2 55.61 228.21 C48.02 228.22 40.44 228.23 32.85 228.23 C28.83 228.23 24.81 228.23 20.79 228.24 C17.01 228.25 13.23 228.25 9.45 228.25 C8.06 228.25 6.67 228.25 5.27 228.25 C3.38 228.26 1.49 228.26 -0.4 228.25 C-1.99 228.26 -1.99 228.26 -3.62 228.26 C-5.99 228.13 -5.99 228.13 -6.99 227.13 C-7.09 224.23 -7.12 221.35 -7.11 218.44 C-7.12 217.06 -7.12 217.06 -7.12 215.64 C-7.12 212.53 -7.12 209.41 -7.12 206.29 C-7.12 204.06 -7.12 201.84 -7.12 199.61 C-7.13 193.55 -7.12 187.49 -7.12 181.43 C-7.12 175.1 -7.12 168.77 -7.12 162.44 C-7.12 151.13 -7.12 139.82 -7.12 128.51 C-7.11 118.24 -7.11 107.98 -7.12 97.71 C-7.12 85.8 -7.12 73.9 -7.12 61.99 C-7.12 55.68 -7.12 49.37 -7.12 43.06 C-7.13 37.13 -7.12 31.2 -7.12 25.28 C-7.12 23.09 -7.12 20.91 -7.12 18.73 C-7.12 15.76 -7.12 12.79 -7.11 9.83 C-7.12 8.95 -7.12 8.08 -7.12 7.17 C-7.1 0.21 -6.97 0.02 0 0 Z M69.01 78.13 C68.99 89.83 68.97 101.52 68.95 113.57 C68.94 117.27 68.93 120.97 68.92 124.78 C68.92 128.08 68.92 128.08 68.92 131.38 C68.92 132.86 68.91 134.34 68.91 135.81 C68.9 138.04 68.9 140.27 68.9 142.5 C68.9 143.76 68.89 145.02 68.89 146.32 C68.69 149.04 68.69 149.04 70.01 150.13 C72.25 150.23 74.48 150.26 76.72 150.26 C77.77 150.27 77.77 150.27 78.84 150.27 C81.17 150.27 83.5 150.27 85.83 150.27 C87.44 150.27 89.05 150.27 90.66 150.27 C94.04 150.27 97.42 150.27 100.8 150.26 C105.14 150.26 109.48 150.26 113.82 150.27 C117.15 150.27 120.47 150.27 123.8 150.27 C125.4 150.27 127 150.27 128.6 150.27 C130.84 150.27 133.07 150.27 135.31 150.26 C136.58 150.26 137.85 150.26 139.17 150.26 C141.91 150.46 141.91 150.46 143.01 149.13 C143.11 146.93 143.13 144.71 143.13 142.5 C143.13 141.45 143.13 141.45 143.13 140.37 C143.13 138.08 143.12 135.79 143.11 133.5 C143.11 132.1 143.11 130.69 143.11 129.28 C143.1 124.04 143.09 118.81 143.08 113.57 C143.04 96.03 143.04 96.03 143.01 78.13 C118.59 78.13 94.17 78.13 69.01 78.13 Z " fill="#000000" transform="translate(908.9871969223022,354.8662565946579)"/>
<path d="M0 0 C0.87 0 1.74 0 2.63 0.01 C4 0 4 0 5.4 0 C8.49 -0 11.58 0 14.67 0 C16.88 0 19.08 0 21.29 -0 C27.3 -0.01 33.31 -0 39.31 -0 C45.59 0 51.86 -0 58.13 -0 C69.34 -0 80.55 -0 91.76 0 C101.94 0.01 112.11 0.01 122.29 0 C134.09 -0 145.89 -0 157.7 -0 C163.95 0 170.2 0 176.45 -0 C182.33 -0.01 188.21 -0 194.08 0 C196.25 0 198.41 0 200.57 0 C203.52 -0 206.46 0 209.4 0.01 C210.26 0 211.13 0 212.03 0 C217.9 0.02 217.9 0.02 219.01 1.13 C219.12 3.9 219.16 6.64 219.15 9.41 C219.16 10.29 219.16 11.17 219.16 12.07 C219.17 15.04 219.17 18.01 219.17 20.97 C219.18 23.09 219.18 25.21 219.19 27.33 C219.2 33.11 219.21 38.89 219.21 44.66 C219.22 48.28 219.22 51.89 219.22 55.5 C219.24 66.82 219.25 78.13 219.25 89.45 C219.26 102.49 219.27 115.53 219.3 128.57 C219.32 138.66 219.33 148.74 219.34 158.83 C219.34 164.85 219.34 170.87 219.36 176.89 C219.38 182.57 219.38 188.24 219.37 193.92 C219.37 195.99 219.37 198.06 219.38 200.13 C219.46 216.72 217.47 232.14 213.51 248.26 C213.21 249.54 213.21 249.54 212.91 250.84 C211.8 255.43 210.49 259.8 208.77 264.19 C208 266.18 207.3 268.19 206.62 270.21 C203.68 278.9 200.31 287.01 196.01 295.13 C195.66 295.86 195.31 296.59 194.95 297.34 C191.88 303.68 188.34 309.53 184.45 315.38 C183.6 316.67 183.6 316.67 182.74 317.99 C181.66 319.63 180.57 321.28 179.47 322.92 C178.56 324.3 177.67 325.68 176.79 327.08 C175.91 328.46 174.97 329.8 174.01 331.13 C173.35 331.13 172.69 331.13 172.01 331.13 C171.74 331.71 171.48 332.28 171.2 332.87 C169.97 335.21 168.59 337.26 167.01 339.38 C166.24 340.44 166.24 340.44 165.45 341.52 C164.98 342.06 164.5 342.59 164.01 343.13 C163.35 343.13 162.69 343.13 162.01 343.13 C161.75 343.72 161.48 344.31 161.21 344.92 C159.97 347.21 158.66 348.74 156.83 350.59 C156.21 351.21 155.59 351.82 154.96 352.46 C154.32 353.1 153.67 353.73 153.01 354.38 C152.37 355.03 151.73 355.68 151.07 356.35 C150.45 356.97 149.84 357.58 149.2 358.21 C148.64 358.77 148.07 359.33 147.49 359.91 C146.01 361.13 146.01 361.13 144.01 361.13 C144.01 361.79 144.01 362.45 144.01 363.13 C143.35 363.13 142.69 363.13 142.01 363.13 C142.01 363.79 142.01 364.45 142.01 365.13 C139.76 367.09 137.5 368.94 135.14 370.76 C134.16 371.53 134.16 371.53 133.17 372.32 C128.27 376.13 128.27 376.13 126.01 376.13 C126.01 376.79 126.01 377.45 126.01 378.13 C125.02 378.69 124.03 379.24 123 379.81 C119.64 381.73 116.43 383.83 113.22 385.99 C104.2 392.03 94.96 396.82 85.01 401.13 C83.34 401.87 83.34 401.87 81.63 402.63 C76.29 404.93 70.95 406.87 65.36 408.46 C63.15 409.09 60.99 409.81 58.83 410.57 C45.81 414.96 32.44 418.01 18.76 419.26 C17.86 419.34 16.95 419.43 16.02 419.51 C8.7 420.15 1.35 420.64 -5.99 420.13 C-7.66 418.46 -7.11 416.43 -7.12 414.2 C-7.12 413.14 -7.12 413.14 -7.12 412.06 C-7.12 411.32 -7.12 410.58 -7.12 409.82 C-7.13 407.36 -7.12 404.9 -7.12 402.45 C-7.12 400.75 -7.12 399.05 -7.12 397.35 C-7.12 393.78 -7.12 390.21 -7.12 386.64 C-7.11 382.06 -7.12 377.48 -7.12 372.89 C-7.12 369.38 -7.12 365.87 -7.12 362.36 C-7.12 360.66 -7.12 358.97 -7.12 357.28 C-7.13 354.93 -7.12 352.57 -7.12 350.21 C-7.12 349.5 -7.12 348.8 -7.12 348.07 C-7.1 343.25 -7.1 343.25 -5.99 342.13 C-2.94 341.97 0.09 341.86 3.14 341.76 C22.63 340.94 40.57 335.76 58.01 327.13 C59.45 326.48 59.45 326.48 60.92 325.81 C70.03 321.54 80.56 315.83 87.6 308.48 C89.01 307.13 89.01 307.13 91.01 307.13 C91.01 306.47 91.01 305.81 91.01 305.13 C92.41 303.79 92.41 303.79 94.39 302.2 C100.59 296.93 106.49 290.91 111.01 284.13 C111.67 284.13 112.33 284.13 113.01 284.13 C113.1 283.6 113.18 283.06 113.26 282.51 C114.29 279.26 116.07 276.87 118.01 274.07 C120.98 269.84 120.98 269.84 123.01 265.13 C123.67 265.13 124.33 265.13 125.01 265.13 C125.12 264.42 125.23 263.71 125.34 262.97 C126.08 259.84 127.28 257.51 128.83 254.7 C131.73 249.06 133.55 243.48 135.15 237.36 C135.99 234.23 136.98 231.2 138.01 228.13 C137.27 228.13 136.53 228.14 135.77 228.14 C117.76 228.16 99.75 228.18 81.74 228.19 C73.03 228.19 64.32 228.2 55.61 228.21 C48.02 228.22 40.44 228.23 32.85 228.23 C28.83 228.23 24.81 228.23 20.79 228.24 C17.01 228.25 13.23 228.25 9.45 228.25 C8.06 228.25 6.67 228.25 5.27 228.25 C3.38 228.26 1.49 228.26 -0.4 228.25 C-1.99 228.26 -1.99 228.26 -3.62 228.26 C-5.99 228.13 -5.99 228.13 -6.99 227.13 C-7.09 224.23 -7.12 221.35 -7.11 218.44 C-7.12 217.06 -7.12 217.06 -7.12 215.64 C-7.12 212.53 -7.12 209.41 -7.12 206.29 C-7.12 204.06 -7.12 201.84 -7.12 199.61 C-7.13 193.55 -7.12 187.49 -7.12 181.43 C-7.12 175.1 -7.12 168.77 -7.12 162.44 C-7.12 151.13 -7.12 139.82 -7.12 128.51 C-7.11 118.24 -7.11 107.98 -7.12 97.71 C-7.12 85.8 -7.12 73.9 -7.12 61.99 C-7.12 55.68 -7.12 49.37 -7.12 43.06 C-7.13 37.13 -7.12 31.2 -7.12 25.28 C-7.12 23.09 -7.12 20.91 -7.12 18.73 C-7.12 15.76 -7.12 12.79 -7.11 9.83 C-7.12 8.95 -7.12 8.08 -7.12 7.17 C-7.1 0.21 -6.97 0.02 0 0 Z M69.01 78.13 C68.99 89.83 68.97 101.52 68.95 113.57 C68.94 117.27 68.93 120.97 68.92 124.78 C68.92 128.08 68.92 128.08 68.92 131.38 C68.92 132.86 68.91 134.34 68.91 135.81 C68.9 138.04 68.9 140.27 68.9 142.5 C68.9 143.76 68.89 145.02 68.89 146.32 C68.69 149.04 68.69 149.04 70.01 150.13 C72.25 150.23 74.48 150.26 76.72 150.26 C77.77 150.27 77.77 150.27 78.84 150.27 C81.17 150.27 83.5 150.27 85.83 150.27 C87.44 150.27 89.05 150.27 90.66 150.27 C94.04 150.27 97.42 150.27 100.8 150.26 C105.14 150.26 109.48 150.26 113.82 150.27 C117.15 150.27 120.47 150.27 123.8 150.27 C125.4 150.27 127 150.27 128.6 150.27 C130.84 150.27 133.07 150.27 135.31 150.26 C136.58 150.26 137.85 150.26 139.17 150.26 C141.91 150.46 141.91 150.46 143.01 149.13 C143.11 146.93 143.13 144.71 143.13 142.5 C143.13 141.45 143.13 141.45 143.13 140.37 C143.13 138.08 143.12 135.79 143.11 133.5 C143.11 132.1 143.11 130.69 143.11 129.28 C143.1 124.04 143.09 118.81 143.08 113.57 C143.04 96.03 143.04 96.03 143.01 78.13 C118.59 78.13 94.17 78.13 69.01 78.13 Z " fill="#000000" transform="translate(608.9871969223022,354.8662565946579)"/>
<path d="M0 0 C0.72 -0 1.44 -0 2.18 -0.01 C4.57 -0.01 6.97 -0.01 9.36 -0 C11.01 -0 12.67 -0.01 14.33 -0.01 C17.8 -0.01 21.27 -0.01 24.75 -0 C29.21 0 33.67 0 38.13 -0 C41.55 -0.01 44.97 -0.01 48.39 -0 C50.04 -0 51.68 -0 53.33 -0.01 C55.63 -0.01 57.92 -0.01 60.22 0 C61.53 0 62.84 0 64.19 0 C67.11 0.13 67.11 0.13 68.11 1.13 C68.21 3.5 68.25 5.84 68.24 8.2 C68.24 9.31 68.24 9.31 68.24 10.45 C68.25 12.9 68.25 15.36 68.24 17.82 C68.24 19.52 68.24 21.22 68.25 22.92 C68.25 26.49 68.24 30.05 68.24 33.62 C68.23 38.2 68.24 42.79 68.24 47.37 C68.25 50.88 68.25 54.4 68.24 57.91 C68.24 59.6 68.24 61.29 68.25 62.98 C68.25 65.34 68.24 67.7 68.24 70.06 C68.24 70.76 68.24 71.47 68.24 72.19 C68.22 77.02 68.22 77.02 67.11 78.13 C64.81 78.23 62.52 78.26 60.22 78.26 C59.5 78.26 58.78 78.26 58.04 78.26 C55.64 78.27 53.25 78.27 50.86 78.26 C49.2 78.26 47.55 78.26 45.89 78.27 C42.42 78.27 38.95 78.26 35.47 78.26 C31.01 78.25 26.55 78.26 22.08 78.26 C18.67 78.27 15.25 78.27 11.83 78.26 C10.18 78.26 8.53 78.26 6.89 78.27 C4.59 78.27 2.3 78.26 0 78.26 C-1.96 78.26 -1.96 78.26 -3.97 78.26 C-6.89 78.13 -6.89 78.13 -7.89 77.13 C-7.99 74.76 -8.03 72.42 -8.02 70.06 C-8.02 69.32 -8.02 68.58 -8.03 67.81 C-8.03 65.36 -8.03 62.9 -8.02 60.44 C-8.02 58.74 -8.03 57.04 -8.03 55.34 C-8.03 51.77 -8.03 48.21 -8.02 44.64 C-8.02 40.05 -8.02 35.47 -8.02 30.89 C-8.03 27.38 -8.03 23.86 -8.02 20.35 C-8.02 18.66 -8.02 16.97 -8.03 15.28 C-8.03 12.92 -8.03 10.56 -8.02 8.2 C-8.02 7.5 -8.02 6.79 -8.03 6.07 C-8 -0.75 -6.56 0 0 0 Z " fill="#000000" transform="translate(459.890625,696.87060546875)"/>
<path d="M0 0 C0.72 -0 1.44 -0 2.18 -0.01 C4.57 -0.01 6.97 -0.01 9.36 -0 C11.01 -0 12.67 -0.01 14.33 -0.01 C17.8 -0.01 21.27 -0.01 24.75 -0 C29.21 0 33.67 0 38.13 -0 C41.55 -0.01 44.97 -0.01 48.39 -0 C50.04 -0 51.68 -0 53.33 -0.01 C55.63 -0.01 57.92 -0.01 60.22 0 C61.53 0 62.84 0 64.19 0 C67.11 0.13 67.11 0.13 68.11 1.13 C68.21 3.5 68.25 5.84 68.24 8.2 C68.24 9.31 68.24 9.31 68.24 10.45 C68.25 12.9 68.25 15.36 68.24 17.82 C68.24 19.52 68.24 21.22 68.25 22.92 C68.25 26.49 68.24 30.05 68.24 33.62 C68.23 38.2 68.24 42.79 68.24 47.37 C68.25 50.88 68.25 54.4 68.24 57.91 C68.24 59.6 68.24 61.29 68.25 62.98 C68.25 65.34 68.24 67.7 68.24 70.06 C68.24 70.76 68.24 71.47 68.24 72.19 C68.22 77.02 68.22 77.02 67.11 78.13 C64.81 78.23 62.52 78.26 60.22 78.26 C59.5 78.26 58.78 78.26 58.04 78.26 C55.64 78.27 53.25 78.27 50.86 78.26 C49.2 78.26 47.55 78.26 45.89 78.27 C42.42 78.27 38.95 78.26 35.47 78.26 C31.01 78.25 26.55 78.26 22.08 78.26 C18.67 78.27 15.25 78.27 11.83 78.26 C10.18 78.26 8.53 78.26 6.89 78.27 C4.59 78.27 2.3 78.26 0 78.26 C-1.96 78.26 -1.96 78.26 -3.97 78.26 C-6.89 78.13 -6.89 78.13 -7.89 77.13 C-7.99 74.76 -8.03 72.42 -8.02 70.06 C-8.02 69.32 -8.02 68.58 -8.03 67.81 C-8.03 65.36 -8.03 62.9 -8.02 60.44 C-8.02 58.74 -8.03 57.04 -8.03 55.34 C-8.03 51.77 -8.03 48.21 -8.02 44.64 C-8.02 40.05 -8.02 35.47 -8.02 30.89 C-8.03 27.38 -8.03 23.86 -8.02 20.35 C-8.02 18.66 -8.02 16.97 -8.03 15.28 C-8.03 12.92 -8.03 10.56 -8.02 8.2 C-8.02 7.5 -8.02 6.79 -8.03 6.07 C-8 -0.75 -6.56 0 0 0 Z " fill="#000000" transform="translate(309.890625,696.87060546875)"/>
<path d="M0 0 C0.72 -0 1.44 -0 2.18 -0.01 C4.57 -0.01 6.97 -0.01 9.36 -0 C11.01 -0 12.67 -0.01 14.33 -0.01 C17.8 -0.01 21.27 -0.01 24.75 -0 C29.21 0 33.67 0 38.13 -0 C41.55 -0.01 44.97 -0.01 48.39 -0 C50.04 -0 51.68 -0 53.33 -0.01 C55.63 -0.01 57.92 -0.01 60.22 0 C61.53 0 62.84 0 64.19 0 C67.11 0.13 67.11 0.13 68.11 1.13 C68.21 3.5 68.25 5.84 68.24 8.2 C68.24 9.31 68.24 9.31 68.24 10.45 C68.25 12.9 68.25 15.36 68.24 17.82 C68.24 19.52 68.24 21.22 68.25 22.92 C68.25 26.49 68.24 30.05 68.24 33.62 C68.23 38.2 68.24 42.79 68.24 47.37 C68.25 50.88 68.25 54.4 68.24 57.91 C68.24 59.6 68.24 61.29 68.25 62.98 C68.25 65.34 68.24 67.7 68.24 70.06 C68.24 70.76 68.24 71.47 68.24 72.19 C68.22 77.02 68.22 77.02 67.11 78.13 C64.81 78.23 62.52 78.26 60.22 78.26 C59.5 78.26 58.78 78.26 58.04 78.26 C55.64 78.27 53.25 78.27 50.86 78.26 C49.2 78.26 47.55 78.26 45.89 78.27 C42.42 78.27 38.95 78.26 35.47 78.26 C31.01 78.25 26.55 78.26 22.08 78.26 C18.67 78.27 15.25 78.27 11.83 78.26 C10.18 78.26 8.53 78.26 6.89 78.27 C4.59 78.27 2.3 78.26 0 78.26 C-1.96 78.26 -1.96 78.26 -3.97 78.26 C-6.89 78.13 -6.89 78.13 -7.89 77.13 C-7.99 74.76 -8.03 72.42 -8.02 70.06 C-8.02 69.32 -8.02 68.58 -8.03 67.81 C-8.03 65.36 -8.03 62.9 -8.02 60.44 C-8.02 58.74 -8.03 57.04 -8.03 55.34 C-8.03 51.77 -8.03 48.21 -8.02 44.64 C-8.02 40.05 -8.02 35.47 -8.02 30.89 C-8.03 27.38 -8.03 23.86 -8.02 20.35 C-8.02 18.66 -8.02 16.97 -8.03 15.28 C-8.03 12.92 -8.03 10.56 -8.02 8.2 C-8.02 7.5 -8.02 6.79 -8.03 6.07 C-8 -0.75 -6.56 0 0 0 Z " fill="#000000" transform="translate(159.890625,696.87060546875)"/>
</svg>
